<svg xmlns="http://www.w3.org/2000/svg" xmlns:xlink="http://www.w3.org/1999/xlink" width="600" height="400" viewBox="0 0 2400 1600">
<defs>
  <clipPath id="clip100">
    <rect x="0" y="0" width="2400" height="1600"></rect>
  </clipPath>
</defs>
<path clip-path="url(#clip100)" d="M0 1600 L2400 1600 L2400 0 L0 0  Z" fill="#ffffff" fill-rule="evenodd" fill-opacity="1"></path>
<defs>
  <clipPath id="clip101">
    <rect x="480" y="0" width="1681" height="1600"></rect>
  </clipPath>
</defs>
<path clip-path="url(#clip100)" d="M178.867 1486.45 L2352.76 1486.45 L2352.76 47.2441 L178.867 47.2441  Z" fill="#ffffff" fill-rule="evenodd" fill-opacity="1"></path>
<defs>
  <clipPath id="clip102">
    <rect x="178" y="47" width="2175" height="1440"></rect>
  </clipPath>
</defs>
<polyline clip-path="url(#clip102)" style="stroke:#000000; stroke-linecap:round; stroke-linejoin:round; stroke-width:2; stroke-opacity:0.1; fill:none" points="560.835,1486.45 560.835,47.2441 "></polyline>
<polyline clip-path="url(#clip102)" style="stroke:#000000; stroke-linecap:round; stroke-linejoin:round; stroke-width:2; stroke-opacity:0.1; fill:none" points="945.368,1486.45 945.368,47.2441 "></polyline>
<polyline clip-path="url(#clip102)" style="stroke:#000000; stroke-linecap:round; stroke-linejoin:round; stroke-width:2; stroke-opacity:0.1; fill:none" points="1329.9,1486.45 1329.9,47.2441 "></polyline>
<polyline clip-path="url(#clip102)" style="stroke:#000000; stroke-linecap:round; stroke-linejoin:round; stroke-width:2; stroke-opacity:0.1; fill:none" points="1714.43,1486.45 1714.43,47.2441 "></polyline>
<polyline clip-path="url(#clip102)" style="stroke:#000000; stroke-linecap:round; stroke-linejoin:round; stroke-width:2; stroke-opacity:0.1; fill:none" points="2098.96,1486.45 2098.96,47.2441 "></polyline>
<polyline clip-path="url(#clip100)" style="stroke:#000000; stroke-linecap:round; stroke-linejoin:round; stroke-width:4; stroke-opacity:1; fill:none" points="178.867,1486.45 2352.76,1486.45 "></polyline>
<polyline clip-path="url(#clip100)" style="stroke:#000000; stroke-linecap:round; stroke-linejoin:round; stroke-width:4; stroke-opacity:1; fill:none" points="560.835,1486.45 560.835,1467.55 "></polyline>
<polyline clip-path="url(#clip100)" style="stroke:#000000; stroke-linecap:round; stroke-linejoin:round; stroke-width:4; stroke-opacity:1; fill:none" points="945.368,1486.45 945.368,1467.55 "></polyline>
<polyline clip-path="url(#clip100)" style="stroke:#000000; stroke-linecap:round; stroke-linejoin:round; stroke-width:4; stroke-opacity:1; fill:none" points="1329.9,1486.45 1329.9,1467.55 "></polyline>
<polyline clip-path="url(#clip100)" style="stroke:#000000; stroke-linecap:round; stroke-linejoin:round; stroke-width:4; stroke-opacity:1; fill:none" points="1714.43,1486.45 1714.43,1467.55 "></polyline>
<polyline clip-path="url(#clip100)" style="stroke:#000000; stroke-linecap:round; stroke-linejoin:round; stroke-width:4; stroke-opacity:1; fill:none" points="2098.96,1486.45 2098.96,1467.55 "></polyline>
<path clip-path="url(#clip100)" d="M560.835 1517.37 Q557.224 1517.37 555.396 1520.93 Q553.59 1524.47 553.59 1531.6 Q553.59 1538.71 555.396 1542.27 Q557.224 1545.82 560.835 1545.82 Q564.47 1545.82 566.275 1542.27 Q568.104 1538.71 568.104 1531.6 Q568.104 1524.47 566.275 1520.93 Q564.47 1517.37 560.835 1517.37 M560.835 1513.66 Q566.646 1513.66 569.701 1518.27 Q572.78 1522.85 572.78 1531.6 Q572.78 1540.33 569.701 1544.94 Q566.646 1549.52 560.835 1549.52 Q555.025 1549.52 551.947 1544.94 Q548.891 1540.33 548.891 1531.6 Q548.891 1522.85 551.947 1518.27 Q555.025 1513.66 560.835 1513.66 Z" fill="#000000" fill-rule="nonzero" fill-opacity="1"></path><path clip-path="url(#clip100)" d="M949.615 1530.21 Q952.972 1530.93 954.847 1533.2 Q956.745 1535.47 956.745 1538.8 Q956.745 1543.92 953.226 1546.72 Q949.708 1549.52 943.226 1549.52 Q941.051 1549.52 938.736 1549.08 Q936.444 1548.66 933.99 1547.81 L933.99 1543.29 Q935.935 1544.43 938.25 1545.01 Q940.564 1545.58 943.088 1545.58 Q947.486 1545.58 949.777 1543.85 Q952.092 1542.11 952.092 1538.8 Q952.092 1535.75 949.939 1534.03 Q947.81 1532.3 943.99 1532.3 L939.963 1532.3 L939.963 1528.45 L944.176 1528.45 Q947.625 1528.45 949.453 1527.09 Q951.282 1525.7 951.282 1523.11 Q951.282 1520.45 949.384 1519.03 Q947.509 1517.6 943.99 1517.6 Q942.069 1517.6 939.87 1518.01 Q937.671 1518.43 935.032 1519.31 L935.032 1515.14 Q937.694 1514.4 940.009 1514.03 Q942.347 1513.66 944.407 1513.66 Q949.731 1513.66 952.833 1516.09 Q955.935 1518.5 955.935 1522.62 Q955.935 1525.49 954.291 1527.48 Q952.648 1529.45 949.615 1530.21 Z" fill="#000000" fill-rule="nonzero" fill-opacity="1"></path><path clip-path="url(#clip100)" d="M1330.31 1529.7 Q1327.16 1529.7 1325.31 1531.86 Q1323.48 1534.01 1323.48 1537.76 Q1323.48 1541.49 1325.31 1543.66 Q1327.16 1545.82 1330.31 1545.82 Q1333.45 1545.82 1335.28 1543.66 Q1337.13 1541.49 1337.13 1537.76 Q1337.13 1534.01 1335.28 1531.86 Q1333.45 1529.7 1330.31 1529.7 M1339.59 1515.05 L1339.59 1519.31 Q1337.83 1518.48 1336.02 1518.04 Q1334.24 1517.6 1332.48 1517.6 Q1327.85 1517.6 1325.4 1520.72 Q1322.97 1523.85 1322.62 1530.17 Q1323.99 1528.15 1326.05 1527.09 Q1328.11 1526 1330.58 1526 Q1335.79 1526 1338.8 1529.17 Q1341.83 1532.32 1341.83 1537.76 Q1341.83 1543.08 1338.68 1546.3 Q1335.54 1549.52 1330.31 1549.52 Q1324.31 1549.52 1321.14 1544.94 Q1317.97 1540.33 1317.97 1531.6 Q1317.97 1523.41 1321.86 1518.55 Q1325.74 1513.66 1332.3 1513.66 Q1334.06 1513.66 1335.84 1514.01 Q1337.64 1514.36 1339.59 1515.05 Z" fill="#000000" fill-rule="nonzero" fill-opacity="1"></path><path clip-path="url(#clip100)" d="M1704.73 1548.13 L1704.73 1543.87 Q1706.49 1544.7 1708.3 1545.14 Q1710.1 1545.58 1711.84 1545.58 Q1716.47 1545.58 1718.9 1542.48 Q1721.35 1539.36 1721.7 1533.01 Q1720.36 1535.01 1718.3 1536.07 Q1716.24 1537.13 1713.74 1537.13 Q1708.55 1537.13 1705.52 1534.01 Q1702.51 1530.86 1702.51 1525.42 Q1702.51 1520.1 1705.66 1516.88 Q1708.81 1513.66 1714.04 1513.66 Q1720.03 1513.66 1723.18 1518.27 Q1726.35 1522.85 1726.35 1531.6 Q1726.35 1539.77 1722.46 1544.66 Q1718.6 1549.52 1712.05 1549.52 Q1710.29 1549.52 1708.48 1549.17 Q1706.68 1548.82 1704.73 1548.13 M1714.04 1533.48 Q1717.19 1533.48 1719.02 1531.32 Q1720.87 1529.17 1720.87 1525.42 Q1720.87 1521.7 1719.02 1519.54 Q1717.19 1517.37 1714.04 1517.37 Q1710.89 1517.37 1709.04 1519.54 Q1707.21 1521.7 1707.21 1525.42 Q1707.21 1529.17 1709.04 1531.32 Q1710.89 1533.48 1714.04 1533.48 Z" fill="#000000" fill-rule="nonzero" fill-opacity="1"></path><path clip-path="url(#clip100)" d="M2074.45 1544.91 L2082.09 1544.91 L2082.09 1518.55 L2073.78 1520.21 L2073.78 1515.95 L2082.04 1514.29 L2086.72 1514.29 L2086.72 1544.91 L2094.36 1544.91 L2094.36 1548.85 L2074.45 1548.85 L2074.45 1544.91 Z" fill="#000000" fill-rule="nonzero" fill-opacity="1"></path><path clip-path="url(#clip100)" d="M2107.83 1544.91 L2124.15 1544.91 L2124.15 1548.85 L2102.21 1548.85 L2102.21 1544.91 Q2104.87 1542.16 2109.45 1537.53 Q2114.06 1532.88 2115.24 1531.53 Q2117.48 1529.01 2118.36 1527.27 Q2119.27 1525.51 2119.27 1523.82 Q2119.27 1521.07 2117.32 1519.33 Q2115.4 1517.6 2112.3 1517.6 Q2110.1 1517.6 2107.65 1518.36 Q2105.21 1519.13 2102.44 1520.68 L2102.44 1515.95 Q2105.26 1514.82 2107.71 1514.24 Q2110.17 1513.66 2112.21 1513.66 Q2117.58 1513.66 2120.77 1516.35 Q2123.96 1519.03 2123.96 1523.52 Q2123.96 1525.65 2123.15 1527.57 Q2122.37 1529.47 2120.26 1532.07 Q2119.68 1532.74 2116.58 1535.95 Q2113.48 1539.15 2107.83 1544.91 Z" fill="#000000" fill-rule="nonzero" fill-opacity="1"></path><polyline clip-path="url(#clip102)" style="stroke:#000000; stroke-linecap:round; stroke-linejoin:round; stroke-width:2; stroke-opacity:0.1; fill:none" points="178.867,1451.53 2352.76,1451.53 "></polyline>
<polyline clip-path="url(#clip102)" style="stroke:#000000; stroke-linecap:round; stroke-linejoin:round; stroke-width:2; stroke-opacity:0.1; fill:none" points="178.867,1141.24 2352.76,1141.24 "></polyline>
<polyline clip-path="url(#clip102)" style="stroke:#000000; stroke-linecap:round; stroke-linejoin:round; stroke-width:2; stroke-opacity:0.1; fill:none" points="178.867,830.941 2352.76,830.941 "></polyline>
<polyline clip-path="url(#clip102)" style="stroke:#000000; stroke-linecap:round; stroke-linejoin:round; stroke-width:2; stroke-opacity:0.1; fill:none" points="178.867,520.644 2352.76,520.644 "></polyline>
<polyline clip-path="url(#clip102)" style="stroke:#000000; stroke-linecap:round; stroke-linejoin:round; stroke-width:2; stroke-opacity:0.1; fill:none" points="178.867,210.348 2352.76,210.348 "></polyline>
<polyline clip-path="url(#clip100)" style="stroke:#000000; stroke-linecap:round; stroke-linejoin:round; stroke-width:4; stroke-opacity:1; fill:none" points="178.867,1486.45 178.867,47.2441 "></polyline>
<polyline clip-path="url(#clip100)" style="stroke:#000000; stroke-linecap:round; stroke-linejoin:round; stroke-width:4; stroke-opacity:1; fill:none" points="178.867,1451.53 197.764,1451.53 "></polyline>
<polyline clip-path="url(#clip100)" style="stroke:#000000; stroke-linecap:round; stroke-linejoin:round; stroke-width:4; stroke-opacity:1; fill:none" points="178.867,1141.24 197.764,1141.24 "></polyline>
<polyline clip-path="url(#clip100)" style="stroke:#000000; stroke-linecap:round; stroke-linejoin:round; stroke-width:4; stroke-opacity:1; fill:none" points="178.867,830.941 197.764,830.941 "></polyline>
<polyline clip-path="url(#clip100)" style="stroke:#000000; stroke-linecap:round; stroke-linejoin:round; stroke-width:4; stroke-opacity:1; fill:none" points="178.867,520.644 197.764,520.644 "></polyline>
<polyline clip-path="url(#clip100)" style="stroke:#000000; stroke-linecap:round; stroke-linejoin:round; stroke-width:4; stroke-opacity:1; fill:none" points="178.867,210.348 197.764,210.348 "></polyline>
<path clip-path="url(#clip100)" d="M50.9921 1451.99 L80.6679 1451.99 L80.6679 1455.92 L50.9921 1455.92 L50.9921 1451.99 Z" fill="#000000" fill-rule="nonzero" fill-opacity="1"></path><path clip-path="url(#clip100)" d="M103.608 1438.33 L91.8021 1456.78 L103.608 1456.78 L103.608 1438.33 M102.381 1434.25 L108.26 1434.25 L108.26 1456.78 L113.191 1456.78 L113.191 1460.67 L108.26 1460.67 L108.26 1468.81 L103.608 1468.81 L103.608 1460.67 L88.0058 1460.67 L88.0058 1456.15 L102.381 1434.25 Z" fill="#000000" fill-rule="nonzero" fill-opacity="1"></path><path clip-path="url(#clip100)" d="M130.922 1437.33 Q127.311 1437.33 125.482 1440.9 Q123.677 1444.44 123.677 1451.57 Q123.677 1458.67 125.482 1462.24 Q127.311 1465.78 130.922 1465.78 Q134.556 1465.78 136.362 1462.24 Q138.191 1458.67 138.191 1451.57 Q138.191 1444.44 136.362 1440.9 Q134.556 1437.33 130.922 1437.33 M130.922 1433.63 Q136.732 1433.63 139.788 1438.24 Q142.867 1442.82 142.867 1451.57 Q142.867 1460.3 139.788 1464.9 Q136.732 1469.49 130.922 1469.49 Q125.112 1469.49 122.033 1464.9 Q118.978 1460.3 118.978 1451.57 Q118.978 1442.82 122.033 1438.24 Q125.112 1433.63 130.922 1433.63 Z" fill="#000000" fill-rule="nonzero" fill-opacity="1"></path><path clip-path="url(#clip100)" d="M50.9921 1141.69 L80.6679 1141.69 L80.6679 1145.62 L50.9921 1145.62 L50.9921 1141.69 Z" fill="#000000" fill-rule="nonzero" fill-opacity="1"></path><path clip-path="url(#clip100)" d="M104.927 1139.88 Q108.283 1140.6 110.158 1142.87 Q112.057 1145.14 112.057 1148.47 Q112.057 1153.59 108.538 1156.39 Q105.02 1159.19 98.5382 1159.19 Q96.3623 1159.19 94.0475 1158.75 Q91.7558 1158.33 89.3021 1157.48 L89.3021 1152.96 Q91.2465 1154.1 93.5613 1154.67 Q95.8761 1155.25 98.3993 1155.25 Q102.797 1155.25 105.089 1153.52 Q107.404 1151.78 107.404 1148.47 Q107.404 1145.42 105.251 1143.7 Q103.121 1141.97 99.3021 1141.97 L95.2743 1141.97 L95.2743 1138.12 L99.4872 1138.12 Q102.936 1138.12 104.765 1136.76 Q106.594 1135.37 106.594 1132.78 Q106.594 1130.11 104.696 1128.7 Q102.821 1127.27 99.3021 1127.27 Q97.3808 1127.27 95.1817 1127.68 Q92.9826 1128.1 90.3438 1128.98 L90.3438 1124.81 Q93.0058 1124.07 95.3206 1123.7 Q97.6585 1123.33 99.7187 1123.33 Q105.043 1123.33 108.145 1125.76 Q111.246 1128.17 111.246 1132.29 Q111.246 1135.16 109.603 1137.15 Q107.959 1139.12 104.927 1139.88 Z" fill="#000000" fill-rule="nonzero" fill-opacity="1"></path><path clip-path="url(#clip100)" d="M130.922 1127.04 Q127.311 1127.04 125.482 1130.6 Q123.677 1134.14 123.677 1141.27 Q123.677 1148.38 125.482 1151.94 Q127.311 1155.48 130.922 1155.48 Q134.556 1155.48 136.362 1151.94 Q138.191 1148.38 138.191 1141.27 Q138.191 1134.14 136.362 1130.6 Q134.556 1127.04 130.922 1127.04 M130.922 1123.33 Q136.732 1123.33 139.788 1127.94 Q142.867 1132.52 142.867 1141.27 Q142.867 1150 139.788 1154.61 Q136.732 1159.19 130.922 1159.19 Q125.112 1159.19 122.033 1154.61 Q118.978 1150 118.978 1141.27 Q118.978 1132.52 122.033 1127.94 Q125.112 1123.33 130.922 1123.33 Z" fill="#000000" fill-rule="nonzero" fill-opacity="1"></path><path clip-path="url(#clip100)" d="M50.9921 831.392 L80.6679 831.392 L80.6679 835.327 L50.9921 835.327 L50.9921 831.392 Z" fill="#000000" fill-rule="nonzero" fill-opacity="1"></path><path clip-path="url(#clip100)" d="M94.7882 844.286 L111.108 844.286 L111.108 848.221 L89.1632 848.221 L89.1632 844.286 Q91.8252 841.531 96.4085 836.901 Q101.015 832.249 102.196 830.906 Q104.441 828.383 105.321 826.647 Q106.223 824.888 106.223 823.198 Q106.223 820.443 104.279 818.707 Q102.358 816.971 99.2558 816.971 Q97.0567 816.971 94.603 817.735 Q92.1725 818.499 89.3947 820.05 L89.3947 815.327 Q92.2188 814.193 94.6724 813.615 Q97.1261 813.036 99.1632 813.036 Q104.534 813.036 107.728 815.721 Q110.922 818.406 110.922 822.897 Q110.922 825.027 110.112 826.948 Q109.325 828.846 107.219 831.439 Q106.64 832.11 103.538 835.327 Q100.436 838.522 94.7882 844.286 Z" fill="#000000" fill-rule="nonzero" fill-opacity="1"></path><path clip-path="url(#clip100)" d="M130.922 816.74 Q127.311 816.74 125.482 820.304 Q123.677 823.846 123.677 830.976 Q123.677 838.082 125.482 841.647 Q127.311 845.188 130.922 845.188 Q134.556 845.188 136.362 841.647 Q138.191 838.082 138.191 830.976 Q138.191 823.846 136.362 820.304 Q134.556 816.74 130.922 816.74 M130.922 813.036 Q136.732 813.036 139.788 817.642 Q142.867 822.226 142.867 830.976 Q142.867 839.702 139.788 844.309 Q136.732 848.892 130.922 848.892 Q125.112 848.892 122.033 844.309 Q118.978 839.702 118.978 830.976 Q118.978 822.226 122.033 817.642 Q125.112 813.036 130.922 813.036 Z" fill="#000000" fill-rule="nonzero" fill-opacity="1"></path><path clip-path="url(#clip100)" d="M50.9921 521.096 L80.6679 521.096 L80.6679 525.031 L50.9921 525.031 L50.9921 521.096 Z" fill="#000000" fill-rule="nonzero" fill-opacity="1"></path><path clip-path="url(#clip100)" d="M91.5706 533.989 L99.2095 533.989 L99.2095 507.624 L90.8993 509.29 L90.8993 505.031 L99.1632 503.364 L103.839 503.364 L103.839 533.989 L111.478 533.989 L111.478 537.924 L91.5706 537.924 L91.5706 533.989 Z" fill="#000000" fill-rule="nonzero" fill-opacity="1"></path><path clip-path="url(#clip100)" d="M130.922 506.443 Q127.311 506.443 125.482 510.008 Q123.677 513.55 123.677 520.679 Q123.677 527.786 125.482 531.35 Q127.311 534.892 130.922 534.892 Q134.556 534.892 136.362 531.35 Q138.191 527.786 138.191 520.679 Q138.191 513.55 136.362 510.008 Q134.556 506.443 130.922 506.443 M130.922 502.739 Q136.732 502.739 139.788 507.346 Q142.867 511.929 142.867 520.679 Q142.867 529.406 139.788 534.012 Q136.732 538.596 130.922 538.596 Q125.112 538.596 122.033 534.012 Q118.978 529.406 118.978 520.679 Q118.978 511.929 122.033 507.346 Q125.112 502.739 130.922 502.739 Z" fill="#000000" fill-rule="nonzero" fill-opacity="1"></path><path clip-path="url(#clip100)" d="M130.922 196.147 Q127.311 196.147 125.482 199.711 Q123.677 203.253 123.677 210.383 Q123.677 217.489 125.482 221.054 Q127.311 224.596 130.922 224.596 Q134.556 224.596 136.362 221.054 Q138.191 217.489 138.191 210.383 Q138.191 203.253 136.362 199.711 Q134.556 196.147 130.922 196.147 M130.922 192.443 Q136.732 192.443 139.788 197.049 Q142.867 201.633 142.867 210.383 Q142.867 219.109 139.788 223.716 Q136.732 228.299 130.922 228.299 Q125.112 228.299 122.033 223.716 Q118.978 219.109 118.978 210.383 Q118.978 201.633 122.033 197.049 Q125.112 192.443 130.922 192.443 Z" fill="#000000" fill-rule="nonzero" fill-opacity="1"></path><polyline clip-path="url(#clip102)" style="stroke:#009af9; stroke-linecap:round; stroke-linejoin:round; stroke-width:4; stroke-opacity:1; fill:none" points="240.392,236.143 242.445,234.967 244.498,233.801 246.55,232.645 248.603,231.5 250.656,230.364 252.709,229.239 254.762,228.123 256.815,227.017 258.868,225.921 260.921,224.835 262.974,223.759 265.027,222.693 267.079,221.636 269.132,220.589 271.185,219.551 273.238,218.523 275.291,217.505 277.344,216.496 279.397,215.496 281.45,214.506 283.503,213.525 285.555,212.553 287.608,211.591 289.661,210.638 291.714,209.694 293.767,208.759 295.82,207.834 297.873,206.917 299.926,206.009 301.979,205.11 304.031,204.221 306.084,203.34 308.137,202.467 310.19,201.604 312.243,200.749 314.296,199.903 316.349,199.066 318.402,198.237 320.455,197.417 322.507,196.605 324.56,195.801 326.613,195.007 328.666,194.22 330.719,193.442 332.772,192.672 334.825,191.91 336.878,191.157 338.931,190.411 340.984,189.674 343.036,188.945 345.089,188.223 347.142,187.51 349.195,186.805 351.248,186.107 353.301,185.418 355.354,184.736 357.407,184.062 359.46,183.396 361.512,182.737 363.565,182.086 365.618,181.442 367.671,180.806 369.724,180.178 371.777,179.557 373.83,178.943 375.883,178.337 377.936,177.738 379.988,177.146 382.041,176.561 384.094,175.984 386.147,175.414 388.2,174.85 390.253,174.294 392.306,173.745 394.359,173.203 396.412,172.668 398.464,172.139 400.517,171.618 402.57,171.103 404.623,170.595 406.676,170.093 408.729,169.599 410.782,169.11 412.835,168.629 414.888,168.154 416.94,167.685 418.993,167.223 421.046,166.767 423.099,166.317 425.152,165.874 427.205,165.437 429.258,165.006 431.311,164.582 433.364,164.163 435.417,163.751 437.469,163.344 439.522,162.944 441.575,162.549 443.628,162.16 445.681,161.778 447.734,161.401 449.787,161.029 451.84,160.664 453.893,160.304 455.945,159.95 457.998,159.601 460.051,159.258 462.104,158.92 464.157,158.588 466.21,158.261 468.263,157.94 470.316,157.623 472.369,157.313 474.421,157.007 476.474,156.706 478.527,156.411 480.58,156.121 482.633,155.836 484.686,155.555 486.739,155.28 488.792,155.01 490.845,154.744 492.897,154.484 494.95,154.228 497.003,153.977 499.056,153.73 501.109,153.489 503.162,153.251 505.215,153.019 507.268,152.791 509.321,152.567 511.374,152.348 513.426,152.133 515.479,151.923 517.532,151.716 519.585,151.515 521.638,151.317 523.691,151.123 525.744,150.934 527.797,150.748 529.85,150.567 531.902,150.39 533.955,150.216 536.008,150.047 538.061,149.881 540.114,149.719 542.167,149.561 544.22,149.407 546.273,149.256 548.326,149.109 550.378,148.965 552.431,148.826 554.484,148.689 556.537,148.556 558.59,148.427 560.643,148.3 562.696,148.177 564.749,148.058 566.802,147.941 568.854,147.828 570.907,147.718 572.96,147.611 575.013,147.507 577.066,147.406 579.119,147.308 581.172,147.213 583.225,147.121 585.278,147.032 587.331,146.945 589.383,146.862 591.436,146.781 593.489,146.702 595.542,146.626 597.595,146.553 599.648,146.483 601.701,146.414 603.754,146.349 605.807,146.285 607.859,146.224 609.912,146.165 611.965,146.109 614.018,146.055 616.071,146.002 618.124,145.953 620.177,145.905 622.23,145.859 624.283,145.815 626.335,145.773 628.388,145.733 630.441,145.695 632.494,145.658 634.547,145.624 636.6,145.591 638.653,145.56 640.706,145.53 642.759,145.502 644.811,145.476 646.864,145.451 648.917,145.428 650.97,145.406 653.023,145.385 655.076,145.366 657.129,145.348 659.182,145.331 661.235,145.316 663.288,145.301 665.34,145.288 667.393,145.276 669.446,145.264 671.499,145.254 673.552,145.245 675.605,145.236 677.658,145.229 679.711,145.222 681.764,145.216 683.816,145.211 685.869,145.206 687.922,145.202 689.975,145.198 692.028,145.196 694.081,145.193 696.134,145.191 698.187,145.189 700.24,145.188 702.292,145.187 704.345,145.187 706.398,145.186 708.451,145.186 710.504,145.186 712.557,145.186 714.61,145.186 716.663,145.219 718.716,145.32 720.768,145.485 722.821,145.713 724.874,146.001 726.927,146.346 728.98,146.746 731.033,147.198 733.086,147.699 735.139,148.247 737.192,148.84 739.245,149.475 741.297,150.149 743.35,150.859 745.403,151.604 747.456,152.381 749.509,153.187 751.562,154.019 753.615,154.875 755.668,155.752 757.721,156.648 759.773,157.561 761.826,158.487 763.879,159.425 765.932,160.371 767.985,161.323 770.038,162.278 772.091,163.235 774.144,164.19 776.197,165.14 778.249,166.084 780.302,167.019 782.355,167.941 784.408,168.85 786.461,169.741 788.514,170.612 790.567,171.462 792.62,172.287 794.673,173.084 796.725,173.852 798.778,174.588 800.831,175.288 802.884,175.951 804.937,176.574 806.99,177.154 809.043,177.69 811.096,178.177 813.149,178.614 815.202,178.999 817.254,179.328 819.307,179.629 821.36,179.93 823.413,180.229 825.466,180.527 827.519,180.824 829.572,181.12 831.625,181.415 833.678,181.708 835.73,182 837.783,182.291 839.836,182.581 841.889,182.87 843.942,183.157 845.995,183.444 848.048,183.729 850.101,184.013 852.154,184.295 854.206,184.576 856.259,184.857 858.312,185.135 860.365,185.413 862.418,185.689 864.471,185.965 866.524,186.238 868.577,186.511 870.63,186.782 872.682,187.052 874.735,187.321 876.788,187.589 878.841,187.855 880.894,188.12 882.947,188.383 885,188.645 887.053,188.906 889.106,189.166 891.159,189.424 893.211,189.681 895.264,189.937 897.317,190.191 899.37,190.444 901.423,190.696 903.476,190.946 905.529,191.195 907.582,191.443 909.635,191.689 911.687,191.934 913.74,192.177 915.793,192.419 917.846,192.66 919.899,192.899 921.952,193.137 924.005,193.373 926.058,193.608 928.111,193.842 930.163,194.074 932.216,194.305 934.269,194.535 936.322,194.763 938.375,194.989 940.428,195.214 942.481,195.438 944.534,195.66 946.587,195.881 948.639,196.1 950.692,196.318 952.745,196.534 954.798,196.749 956.851,196.962 958.904,197.174 960.957,197.385 963.01,197.594 965.063,197.801 967.116,198.007 969.168,198.211 971.221,198.414 973.274,198.616 975.327,198.815 977.38,199.014 979.433,199.211 981.486,199.406 983.539,199.599 985.592,199.792 987.644,199.982 989.697,200.171 991.75,200.359 993.803,200.544 995.856,200.729 997.909,200.911 999.962,201.093 1002.01,201.272 1004.07,201.45 1006.12,201.626 1008.17,201.801 1010.23,201.974 1012.28,202.146 1014.33,202.316 1016.38,202.484 1018.44,202.651 1020.49,202.816 1022.54,202.979 1024.6,203.141 1026.65,203.301 1028.7,203.459 1030.76,203.616 1032.81,203.771 1034.86,203.924 1036.91,204.076 1038.97,204.226 1041.02,204.375 1043.07,204.521 1045.13,204.666 1047.18,204.81 1049.23,204.951 1051.28,205.091 1053.34,205.229 1055.39,205.366 1057.44,205.5 1059.5,205.633 1061.55,205.765 1063.6,205.894 1065.65,206.022 1067.71,206.148 1069.76,206.272 1071.81,206.395 1073.87,206.515 1075.92,206.634 1077.97,206.752 1080.02,206.867 1082.08,206.981 1084.13,207.092 1086.18,207.203 1088.24,207.311 1090.29,207.417 1092.34,207.522 1094.39,207.625 1096.45,207.726 1098.5,207.825 1100.55,207.922 1102.61,208.018 1104.66,208.111 1106.71,208.203 1108.77,208.293 1110.82,208.381 1112.87,208.468 1114.92,208.552 1116.98,208.635 1119.03,208.715 1121.08,208.794 1123.14,208.871 1125.19,208.946 1127.24,209.019 1129.29,209.09 1131.35,209.16 1133.4,209.227 1135.45,209.292 1137.51,209.356 1139.56,209.418 1141.61,209.477 1143.66,209.535 1145.72,209.591 1147.77,209.645 1149.82,209.697 1151.88,209.747 1153.93,209.795 1155.98,209.841 1158.03,209.885 1160.09,209.927 1162.14,209.967 1164.19,210.006 1166.25,210.042 1168.3,210.076 1170.35,210.108 1172.4,210.138 1174.46,210.166 1176.51,210.193 1178.56,210.217 1180.62,210.239 1182.67,210.259 1184.72,210.277 1186.77,210.293 1188.83,210.307 1190.88,210.319 1192.93,210.329 1194.99,210.337 1197.04,210.343 1199.09,210.346 1201.15,210.348 1203.2,210.348 1205.25,210.348 1207.3,210.348 1209.36,210.348 1211.41,210.348 1213.46,210.348 1215.52,210.348 1217.57,210.348 1219.62,210.348 1221.67,210.348 1223.73,210.348 1225.78,210.348 1227.83,210.348 1229.89,210.348 1231.94,210.348 1233.99,210.348 1236.04,210.348 1238.1,210.348 1240.15,210.348 1242.2,210.348 1244.26,210.348 1246.31,210.348 1248.36,210.348 1250.41,210.348 1252.47,210.348 1254.52,210.348 1256.57,210.348 1258.63,210.348 1260.68,210.348 1262.73,210.348 1264.78,210.348 1266.84,210.348 1268.89,210.348 1270.94,210.348 1273,210.348 1275.05,210.348 1277.1,210.348 1279.16,210.348 1281.21,210.348 1283.26,210.348 1285.31,210.348 1287.37,210.348 1289.42,210.348 1291.47,210.348 1293.53,210.348 1295.58,210.348 1297.63,210.348 1299.68,210.348 1301.74,210.348 1303.79,210.348 1305.84,210.348 1307.9,210.348 1309.95,210.348 1312,210.348 1314.05,210.348 1316.11,210.348 1318.16,210.348 1320.21,210.348 1322.27,210.348 1324.32,210.348 1326.37,210.348 1328.42,210.348 1330.48,210.348 1332.53,210.348 1334.58,210.348 1336.64,210.348 1338.69,210.348 1340.74,210.348 1342.79,210.348 1344.85,210.348 1346.9,210.348 1348.95,210.348 1351.01,210.348 1353.06,210.348 1355.11,210.348 1357.16,210.348 1359.22,210.348 1361.27,210.348 1363.32,210.348 1365.38,210.348 1367.43,210.348 1369.48,210.348 1371.54,210.348 1373.59,210.348 1375.64,210.348 1377.69,210.348 1379.75,210.348 1381.8,210.348 1383.85,210.348 1385.91,210.348 1387.96,210.348 1390.01,210.348 1392.06,210.348 1394.12,210.348 1396.17,210.348 1398.22,210.348 1400.28,210.348 1402.33,210.348 1404.38,210.348 1406.43,210.348 1408.49,210.348 1410.54,210.348 1412.59,210.348 1414.65,210.348 1416.7,210.348 1418.75,210.348 1420.8,210.348 1422.86,210.348 1424.91,210.348 1426.96,210.348 1429.02,210.348 1431.07,210.348 1433.12,210.348 1435.17,210.348 1437.23,210.348 1439.28,210.348 1441.33,210.348 1443.39,210.348 1445.44,210.348 1447.49,210.348 1449.55,210.348 1451.6,210.348 1453.65,210.348 1455.7,210.348 1457.76,210.348 1459.81,210.348 1461.86,210.348 1463.92,210.348 1465.97,210.348 1468.02,210.348 1470.07,210.348 1472.13,210.348 1474.18,210.348 1476.23,210.348 1478.29,210.348 1480.34,210.348 1482.39,210.348 1484.44,210.348 1486.5,210.348 1488.55,210.348 1490.6,210.348 1492.66,210.348 1494.71,210.348 1496.76,210.348 1498.81,210.348 1500.87,210.348 1502.92,210.348 1504.97,210.348 1507.03,210.348 1509.08,210.348 1511.13,210.348 1513.18,210.348 1515.24,210.348 1517.29,210.348 1519.34,210.348 1521.4,210.348 1523.45,210.348 1525.5,210.348 1527.55,210.348 1529.61,210.348 1531.66,210.348 1533.71,210.348 1535.77,210.348 1537.82,210.348 1539.87,210.348 1541.93,210.348 1543.98,210.348 1546.03,210.348 1548.08,210.348 1550.14,210.348 1552.19,210.348 1554.24,210.348 1556.3,210.348 1558.35,210.348 1560.4,210.348 1562.45,210.348 1564.51,210.348 1566.56,210.348 1568.61,210.348 1570.67,210.348 1572.72,210.348 1574.77,210.348 1576.82,210.348 1578.88,210.348 1580.93,210.348 1582.98,210.348 1585.04,210.348 1587.09,210.348 1589.14,210.348 1591.19,210.348 1593.25,210.348 1595.3,210.348 1597.35,210.348 1599.41,210.348 1601.46,210.348 1603.51,210.348 1605.56,210.348 1607.62,210.348 1609.67,210.348 1611.72,210.348 1613.78,210.348 1615.83,210.348 1617.88,210.348 1619.94,210.348 1621.99,210.348 1624.04,210.348 1626.09,210.348 1628.15,210.348 1630.2,210.348 1632.25,210.348 1634.31,210.348 1636.36,210.348 1638.41,210.348 1640.46,210.348 1642.52,210.348 1644.57,210.348 1646.62,210.348 1648.68,210.348 1650.73,210.348 1652.78,210.348 1654.83,210.348 1656.89,210.348 1658.94,210.348 1660.99,210.348 1663.05,210.348 1665.1,210.348 1667.15,210.348 1669.2,210.348 1671.26,210.348 1673.31,210.348 1675.36,210.348 1677.42,210.348 1679.47,210.348 1681.52,210.348 1683.57,210.348 1685.63,210.348 1687.68,210.348 1689.73,210.348 1691.79,210.348 1693.84,210.348 1695.89,210.348 1697.94,210.348 1700,210.348 1702.05,210.348 1704.1,210.348 1706.16,210.348 1708.21,210.348 1710.26,210.348 1712.32,210.348 1714.37,210.348 1716.42,210.348 1718.47,210.348 1720.53,210.348 1722.58,210.348 1724.63,210.348 1726.69,210.348 1728.74,210.348 1730.79,210.348 1732.84,210.348 1734.9,210.348 1736.95,210.348 1739,210.348 1741.06,210.348 1743.11,210.348 1745.16,210.348 1747.21,210.348 1749.27,210.348 1751.32,210.348 1753.37,210.348 1755.43,210.348 1757.48,210.348 1759.53,210.348 1761.58,210.348 1763.64,210.348 1765.69,210.348 1767.74,210.348 1769.8,210.348 1771.85,210.348 1773.9,210.348 1775.95,210.348 1778.01,210.348 1780.06,210.348 1782.11,210.348 1784.17,210.348 1786.22,210.348 1788.27,210.348 1790.33,210.348 1792.38,210.348 1794.43,210.348 1796.48,210.348 1798.54,210.348 1800.59,210.348 1802.64,210.348 1804.7,210.348 1806.75,210.348 1808.8,210.348 1810.85,210.348 1812.91,210.348 1814.96,210.348 1817.01,210.348 1819.07,210.348 1821.12,210.348 1823.17,210.348 1825.22,210.348 1827.28,210.348 1829.33,210.348 1831.38,210.348 1833.44,210.348 1835.49,210.348 1837.54,210.348 1839.59,210.348 1841.65,210.348 1843.7,210.336 1845.75,210.246 1847.81,210.073 1849.86,209.816 1851.91,209.479 1853.96,209.063 1856.02,208.569 1858.07,208.001 1860.12,207.36 1862.18,206.647 1864.23,205.865 1866.28,205.016 1868.34,204.101 1870.39,203.122 1872.44,202.082 1874.49,200.982 1876.55,199.824 1878.6,198.61 1880.65,197.343 1882.71,196.023 1884.76,194.653 1886.81,193.234 1888.86,191.769 1890.92,190.26 1892.97,188.708 1895.02,187.116 1897.08,185.485 1899.13,183.817 1901.18,182.114 1903.23,180.378 1905.29,178.611 1907.34,176.815 1909.39,174.991 1911.45,173.142 1913.5,171.27 1915.55,169.376 1917.6,167.463 1919.66,165.532 1921.71,163.585 1923.76,161.624 1925.82,159.652 1927.87,157.669 1929.92,155.678 1931.97,153.681 1934.03,151.68 1936.08,149.676 1938.13,147.671 1940.19,145.668 1942.24,143.669 1944.29,141.675 1946.34,139.687 1948.4,137.709 1950.45,135.742 1952.5,133.788 1954.56,131.849 1956.61,129.926 1958.66,128.022 1960.72,126.138 1962.77,124.277 1964.82,122.441 1966.87,120.63 1968.93,118.848 1970.98,117.096 1973.03,115.376 1975.09,113.69 1977.14,112.04 1979.19,110.427 1981.24,108.854 1983.3,107.323 1985.35,105.835 1987.4,104.393 1989.46,102.997 1991.51,101.652 1993.56,100.357 1995.61,99.1151 1997.67,97.9284 1999.72,96.7986 2001.77,95.7275 2003.83,94.7172 2005.88,93.7694 2007.93,92.8862 2009.98,92.0694 2012.04,91.321 2014.09,90.6428 2016.14,90.0368 2018.2,89.5049 2020.25,89.049 2022.3,88.671 2024.35,88.3728 2026.41,88.1563 2028.46,88.0235 2030.51,87.9763 2032.57,88.0165 2034.62,88.1461 2036.67,88.367 2038.73,88.6811 2040.78,89.0904 2042.83,89.5966 2044.88,90.2018 2046.94,90.9079 2048.99,91.7167 2051.04,92.6302 2053.1,93.6503 2055.15,94.7789 2057.2,96.018 2059.25,97.3693 2061.31,98.8349 2063.36,100.417 2065.41,102.116 2067.47,103.936 2069.52,105.878 2071.57,107.943 2073.62,110.135 2075.68,112.453 2077.73,114.902 2079.78,117.482 2081.84,120.195 2083.89,123.043 2085.94,126.029 2087.99,129.154 2090.05,132.419 2092.1,135.828 2094.15,139.382 2096.21,143.082 2098.26,146.931 2100.31,150.93 2102.36,155.082 2104.42,159.389 2106.47,163.851 2108.52,168.472 2110.58,173.253 2112.63,178.197 2114.68,183.304 2116.73,188.577 2118.79,194.017 2120.84,199.628 2122.89,205.41 2124.95,211.365 2127,217.496 2129.05,223.804 2131.11,230.292 2133.16,236.961 2135.21,243.813 2137.26,250.849 2139.32,258.073 2141.37,265.486 2143.42,273.089 2145.48,280.885 2147.53,288.875 2149.58,297.062 2151.63,305.447 2153.69,314.033 2155.74,322.821 2157.79,331.813 2159.85,341.011 2161.9,350.416 2163.95,360.032 2166,369.86 2168.06,379.901 2170.11,390.158 2172.16,400.632 2174.22,411.325 2176.27,422.24 2178.32,433.379 2180.37,444.742 2182.43,456.332 2184.48,468.152 2186.53,480.202 2188.59,492.485 2190.64,505.003 2192.69,517.757 2194.74,530.75 2196.8,543.984 2198.85,557.46 2200.9,571.18 2202.96,585.146 2205.01,599.36 2207.06,613.824 2209.12,628.541 2211.17,643.511 2213.22,658.737 2215.27,674.22 2217.33,689.963 2219.38,705.968 2221.43,722.235 2223.49,738.769 2225.54,755.569 2227.59,772.639 2229.64,789.979 2231.7,807.593 2233.75,825.481 2235.8,843.646 2237.86,862.09 2239.91,880.815 2241.96,899.822 2244.01,919.113 2246.07,938.691 2248.12,958.557 2250.17,978.713 2252.23,999.161 2254.28,1019.9 2256.33,1040.94 2258.38,1062.28 2260.44,1083.91 2262.49,1105.85 2264.54,1128.09 2266.6,1150.64 2268.65,1173.49 2270.7,1196.65 2272.75,1220.13 2274.81,1243.92 2276.86,1268.02 2278.91,1292.44 2280.97,1317.18 2283.02,1342.23 2285.07,1367.62 2287.12,1393.32 2289.18,1419.35 2291.23,1445.72 "></polyline>
<circle clip-path="url(#clip102)" cx="560.835" cy="148.289" r="14.4" fill="#009af9" fill-rule="evenodd" fill-opacity="1" stroke="#000000" stroke-opacity="1" stroke-width="3.2"></circle>
<circle clip-path="url(#clip102)" cx="714.648" cy="145.186" r="14.4" fill="#009af9" fill-rule="evenodd" fill-opacity="1" stroke="#000000" stroke-opacity="1" stroke-width="3.2"></circle>
<circle clip-path="url(#clip102)" cx="817.19" cy="179.318" r="14.4" fill="#009af9" fill-rule="evenodd" fill-opacity="1" stroke="#000000" stroke-opacity="1" stroke-width="3.2"></circle>
<circle clip-path="url(#clip102)" cx="1201.72" cy="210.348" r="14.4" fill="#009af9" fill-rule="evenodd" fill-opacity="1" stroke="#000000" stroke-opacity="1" stroke-width="3.2"></circle>
<circle clip-path="url(#clip102)" cx="1842.61" cy="210.348" r="14.4" fill="#009af9" fill-rule="evenodd" fill-opacity="1" stroke="#000000" stroke-opacity="1" stroke-width="3.2"></circle>
<circle clip-path="url(#clip102)" cx="1970.79" cy="117.259" r="14.4" fill="#009af9" fill-rule="evenodd" fill-opacity="1" stroke="#000000" stroke-opacity="1" stroke-width="3.2"></circle>
<path clip-path="url(#clip100)" d="M251.33 1438.47 L1000.47 1438.47 L1000.47 1334.79 L251.33 1334.79  Z" fill="#ffffff" fill-rule="evenodd" fill-opacity="1"></path>
<polyline clip-path="url(#clip100)" style="stroke:#000000; stroke-linecap:round; stroke-linejoin:round; stroke-width:4; stroke-opacity:1; fill:none" points="251.33,1438.47 1000.47,1438.47 1000.47,1334.79 251.33,1334.79 251.33,1438.47 "></polyline>
<polyline clip-path="url(#clip100)" style="stroke:#009af9; stroke-linecap:round; stroke-linejoin:round; stroke-width:4; stroke-opacity:1; fill:none" points="275.484,1386.63 420.41,1386.63 "></polyline>
<path clip-path="url(#clip100)" d="M449.24 1373.2 L449.24 1386.18 L455.12 1386.18 Q458.384 1386.18 460.166 1384.49 Q461.948 1382.8 461.948 1379.68 Q461.948 1376.58 460.166 1374.89 Q458.384 1373.2 455.12 1373.2 L449.24 1373.2 M444.564 1369.35 L455.12 1369.35 Q460.93 1369.35 463.893 1371.99 Q466.879 1374.61 466.879 1379.68 Q466.879 1384.79 463.893 1387.41 Q460.93 1390.03 455.12 1390.03 L449.24 1390.03 L449.24 1403.91 L444.564 1403.91 L444.564 1369.35 Z" fill="#000000" fill-rule="nonzero" fill-opacity="1"></path><path clip-path="url(#clip100)" d="M499.032 1372.02 L499.032 1376.95 Q496.67 1374.75 493.985 1373.66 Q491.323 1372.57 488.314 1372.57 Q482.388 1372.57 479.24 1376.21 Q476.092 1379.82 476.092 1386.67 Q476.092 1393.5 479.24 1397.13 Q482.388 1400.74 488.314 1400.74 Q491.323 1400.74 493.985 1399.66 Q496.67 1398.57 499.032 1396.37 L499.032 1401.25 Q496.578 1402.92 493.823 1403.75 Q491.092 1404.59 488.036 1404.59 Q480.189 1404.59 475.675 1399.79 Q471.161 1394.98 471.161 1386.67 Q471.161 1378.34 475.675 1373.54 Q480.189 1368.73 488.036 1368.73 Q491.138 1368.73 493.87 1369.56 Q496.624 1370.37 499.032 1372.02 Z" fill="#000000" fill-rule="nonzero" fill-opacity="1"></path><path clip-path="url(#clip100)" d="M506.254 1369.35 L510.93 1369.35 L510.93 1383.52 L527.92 1383.52 L527.92 1369.35 L532.596 1369.35 L532.596 1403.91 L527.92 1403.91 L527.92 1387.46 L510.93 1387.46 L510.93 1403.91 L506.254 1403.91 L506.254 1369.35 Z" fill="#000000" fill-rule="nonzero" fill-opacity="1"></path><path clip-path="url(#clip100)" d="M541.902 1369.35 L546.578 1369.35 L546.578 1403.91 L541.902 1403.91 L541.902 1369.35 Z" fill="#000000" fill-rule="nonzero" fill-opacity="1"></path><path clip-path="url(#clip100)" d="M560.559 1373.2 L560.559 1386.18 L566.439 1386.18 Q569.702 1386.18 571.485 1384.49 Q573.267 1382.8 573.267 1379.68 Q573.267 1376.58 571.485 1374.89 Q569.702 1373.2 566.439 1373.2 L560.559 1373.2 M555.883 1369.35 L566.439 1369.35 Q572.249 1369.35 575.212 1371.99 Q578.198 1374.61 578.198 1379.68 Q578.198 1384.79 575.212 1387.41 Q572.249 1390.03 566.439 1390.03 L560.559 1390.03 L560.559 1403.91 L555.883 1403.91 L555.883 1369.35 Z" fill="#000000" fill-rule="nonzero" fill-opacity="1"></path><path clip-path="url(#clip100)" d="M596.878 1377.99 L601.137 1377.99 L606.461 1398.22 L611.762 1377.99 L616.786 1377.99 L622.11 1398.22 L627.41 1377.99 L631.67 1377.99 L624.887 1403.91 L619.864 1403.91 L614.286 1382.66 L608.684 1403.91 L603.661 1403.91 L596.878 1377.99 Z" fill="#000000" fill-rule="nonzero" fill-opacity="1"></path><path clip-path="url(#clip100)" d="M645.697 1369.35 L649.633 1369.35 L637.596 1408.31 L633.66 1408.31 L645.697 1369.35 Z" fill="#000000" fill-rule="nonzero" fill-opacity="1"></path><path clip-path="url(#clip100)" d="M691.345 1389.89 L691.345 1391.97 L671.762 1391.97 Q672.04 1396.37 674.401 1398.68 Q676.785 1400.97 681.021 1400.97 Q683.475 1400.97 685.767 1400.37 Q688.081 1399.77 690.35 1398.57 L690.35 1402.59 Q688.058 1403.57 685.651 1404.08 Q683.243 1404.59 680.767 1404.59 Q674.563 1404.59 670.929 1400.97 Q667.318 1397.36 667.318 1391.21 Q667.318 1384.84 670.744 1381.11 Q674.193 1377.36 680.026 1377.36 Q685.257 1377.36 688.29 1380.74 Q691.345 1384.1 691.345 1389.89 M687.086 1388.64 Q687.04 1385.14 685.118 1383.06 Q683.22 1380.97 680.072 1380.97 Q676.507 1380.97 674.355 1382.99 Q672.225 1385 671.901 1388.66 L687.086 1388.64 Z" fill="#000000" fill-rule="nonzero" fill-opacity="1"></path><path clip-path="url(#clip100)" d="M719.053 1377.99 L709.679 1390.6 L719.54 1403.91 L714.516 1403.91 L706.97 1393.73 L699.424 1403.91 L694.401 1403.91 L704.47 1390.35 L695.257 1377.99 L700.28 1377.99 L707.155 1387.22 L714.03 1377.99 L719.053 1377.99 Z" fill="#000000" fill-rule="nonzero" fill-opacity="1"></path><path clip-path="url(#clip100)" d="M729.771 1370.63 L729.771 1377.99 L738.544 1377.99 L738.544 1381.3 L729.771 1381.3 L729.771 1395.37 Q729.771 1398.54 730.627 1399.45 Q731.507 1400.35 734.169 1400.35 L738.544 1400.35 L738.544 1403.91 L734.169 1403.91 Q729.239 1403.91 727.364 1402.09 Q725.489 1400.23 725.489 1395.37 L725.489 1381.3 L722.364 1381.3 L722.364 1377.99 L725.489 1377.99 L725.489 1370.63 L729.771 1370.63 Z" fill="#000000" fill-rule="nonzero" fill-opacity="1"></path><path clip-path="url(#clip100)" d="M759.169 1381.97 Q758.451 1381.55 757.595 1381.37 Q756.762 1381.16 755.743 1381.16 Q752.132 1381.16 750.188 1383.52 Q748.266 1385.86 748.266 1390.26 L748.266 1403.91 L743.984 1403.91 L743.984 1377.99 L748.266 1377.99 L748.266 1382.02 Q749.609 1379.66 751.762 1378.52 Q753.914 1377.36 756.993 1377.36 Q757.433 1377.36 757.965 1377.43 Q758.498 1377.48 759.146 1377.6 L759.169 1381.97 Z" fill="#000000" fill-rule="nonzero" fill-opacity="1"></path><path clip-path="url(#clip100)" d="M775.419 1390.88 Q770.257 1390.88 768.266 1392.06 Q766.275 1393.24 766.275 1396.09 Q766.275 1398.36 767.757 1399.7 Q769.262 1401.02 771.831 1401.02 Q775.373 1401.02 777.502 1398.52 Q779.655 1396 779.655 1391.83 L779.655 1390.88 L775.419 1390.88 M783.914 1389.12 L783.914 1403.91 L779.655 1403.91 L779.655 1399.98 Q778.197 1402.34 776.021 1403.47 Q773.845 1404.59 770.697 1404.59 Q766.715 1404.59 764.354 1402.36 Q762.016 1400.12 762.016 1396.37 Q762.016 1391.99 764.933 1389.77 Q767.873 1387.55 773.683 1387.55 L779.655 1387.55 L779.655 1387.13 Q779.655 1384.19 777.711 1382.6 Q775.789 1380.97 772.294 1380.97 Q770.072 1380.97 767.965 1381.51 Q765.859 1382.04 763.914 1383.1 L763.914 1379.17 Q766.252 1378.27 768.451 1377.83 Q770.65 1377.36 772.734 1377.36 Q778.359 1377.36 781.136 1380.28 Q783.914 1383.2 783.914 1389.12 Z" fill="#000000" fill-rule="nonzero" fill-opacity="1"></path><path clip-path="url(#clip100)" d="M796.808 1400.03 L796.808 1413.78 L792.525 1413.78 L792.525 1377.99 L796.808 1377.99 L796.808 1381.92 Q798.15 1379.61 800.187 1378.5 Q802.247 1377.36 805.095 1377.36 Q809.817 1377.36 812.757 1381.11 Q815.72 1384.86 815.72 1390.97 Q815.72 1397.09 812.757 1400.84 Q809.817 1404.59 805.095 1404.59 Q802.247 1404.59 800.187 1403.47 Q798.15 1402.34 796.808 1400.03 M811.298 1390.97 Q811.298 1386.28 809.354 1383.61 Q807.433 1380.93 804.053 1380.93 Q800.673 1380.93 798.729 1383.61 Q796.808 1386.28 796.808 1390.97 Q796.808 1395.67 798.729 1398.36 Q800.673 1401.02 804.053 1401.02 Q807.433 1401.02 809.354 1398.36 Q811.298 1395.67 811.298 1390.97 Z" fill="#000000" fill-rule="nonzero" fill-opacity="1"></path><path clip-path="url(#clip100)" d="M832.826 1380.97 Q829.4 1380.97 827.409 1383.66 Q825.419 1386.32 825.419 1390.97 Q825.419 1395.63 827.386 1398.31 Q829.377 1400.97 832.826 1400.97 Q836.229 1400.97 838.22 1398.29 Q840.21 1395.6 840.21 1390.97 Q840.21 1386.37 838.22 1383.68 Q836.229 1380.97 832.826 1380.97 M832.826 1377.36 Q838.382 1377.36 841.553 1380.97 Q844.724 1384.59 844.724 1390.97 Q844.724 1397.34 841.553 1400.97 Q838.382 1404.59 832.826 1404.59 Q827.247 1404.59 824.076 1400.97 Q820.928 1397.34 820.928 1390.97 Q820.928 1384.59 824.076 1380.97 Q827.247 1377.36 832.826 1377.36 Z" fill="#000000" fill-rule="nonzero" fill-opacity="1"></path><path clip-path="url(#clip100)" d="M851.784 1367.9 L856.043 1367.9 L856.043 1403.91 L851.784 1403.91 L851.784 1367.9 Z" fill="#000000" fill-rule="nonzero" fill-opacity="1"></path><path clip-path="url(#clip100)" d="M876.738 1390.88 Q871.576 1390.88 869.585 1392.06 Q867.594 1393.24 867.594 1396.09 Q867.594 1398.36 869.076 1399.7 Q870.58 1401.02 873.15 1401.02 Q876.692 1401.02 878.821 1398.52 Q880.974 1396 880.974 1391.83 L880.974 1390.88 L876.738 1390.88 M885.233 1389.12 L885.233 1403.91 L880.974 1403.91 L880.974 1399.98 Q879.516 1402.34 877.34 1403.47 Q875.164 1404.59 872.016 1404.59 Q868.034 1404.59 865.673 1402.36 Q863.335 1400.12 863.335 1396.37 Q863.335 1391.99 866.252 1389.77 Q869.192 1387.55 875.002 1387.55 L880.974 1387.55 L880.974 1387.13 Q880.974 1384.19 879.029 1382.6 Q877.108 1380.97 873.613 1380.97 Q871.391 1380.97 869.284 1381.51 Q867.178 1382.04 865.233 1383.1 L865.233 1379.17 Q867.571 1378.27 869.77 1377.83 Q871.969 1377.36 874.053 1377.36 Q879.678 1377.36 882.455 1380.28 Q885.233 1383.2 885.233 1389.12 Z" fill="#000000" fill-rule="nonzero" fill-opacity="1"></path><path clip-path="url(#clip100)" d="M898.219 1370.63 L898.219 1377.99 L906.992 1377.99 L906.992 1381.3 L898.219 1381.3 L898.219 1395.37 Q898.219 1398.54 899.076 1399.45 Q899.955 1400.35 902.617 1400.35 L906.992 1400.35 L906.992 1403.91 L902.617 1403.91 Q897.687 1403.91 895.812 1402.09 Q893.937 1400.23 893.937 1395.37 L893.937 1381.3 L890.812 1381.3 L890.812 1377.99 L893.937 1377.99 L893.937 1370.63 L898.219 1370.63 Z" fill="#000000" fill-rule="nonzero" fill-opacity="1"></path><path clip-path="url(#clip100)" d="M912.594 1377.99 L916.853 1377.99 L916.853 1403.91 L912.594 1403.91 L912.594 1377.99 M912.594 1367.9 L916.853 1367.9 L916.853 1373.29 L912.594 1373.29 L912.594 1367.9 Z" fill="#000000" fill-rule="nonzero" fill-opacity="1"></path><path clip-path="url(#clip100)" d="M935.812 1380.97 Q932.386 1380.97 930.395 1383.66 Q928.404 1386.32 928.404 1390.97 Q928.404 1395.63 930.372 1398.31 Q932.363 1400.97 935.812 1400.97 Q939.214 1400.97 941.205 1398.29 Q943.196 1395.6 943.196 1390.97 Q943.196 1386.37 941.205 1383.68 Q939.214 1380.97 935.812 1380.97 M935.812 1377.36 Q941.367 1377.36 944.538 1380.97 Q947.71 1384.59 947.71 1390.97 Q947.71 1397.34 944.538 1400.97 Q941.367 1404.59 935.812 1404.59 Q930.233 1404.59 927.062 1400.97 Q923.913 1397.34 923.913 1390.97 Q923.913 1384.59 927.062 1380.97 Q930.233 1377.36 935.812 1377.36 Z" fill="#000000" fill-rule="nonzero" fill-opacity="1"></path><path clip-path="url(#clip100)" d="M976.321 1388.27 L976.321 1403.91 L972.061 1403.91 L972.061 1388.41 Q972.061 1384.72 970.626 1382.9 Q969.191 1381.07 966.321 1381.07 Q962.872 1381.07 960.881 1383.27 Q958.89 1385.47 958.89 1389.26 L958.89 1403.91 L954.608 1403.91 L954.608 1377.99 L958.89 1377.99 L958.89 1382.02 Q960.418 1379.68 962.478 1378.52 Q964.561 1377.36 967.27 1377.36 Q971.737 1377.36 974.029 1380.14 Q976.321 1382.9 976.321 1388.27 Z" fill="#000000" fill-rule="nonzero" fill-opacity="1"></path></svg>